<?xml version="1.0" encoding="utf-8"?>
<!-- Generator: Adobe Illustrator 16.0.0, SVG Export Plug-In . SVG Version: 6.00 Build 0)  -->
<!DOCTYPE svg PUBLIC "-//W3C//DTD SVG 1.1//EN" "http://www.w3.org/Graphics/SVG/1.1/DTD/svg11.dtd">
<svg version="1.1" id="Layer_1" xmlns="http://www.w3.org/2000/svg" xmlns:xlink="http://www.w3.org/1999/xlink" x="0px" y="0px"
	 width="24.492px" height="23.947px" viewBox="0 0 24.492 23.947" enable-background="new 0 0 24.492 23.947" xml:space="preserve">
<path fill-rule="evenodd" clip-rule="evenodd" fill="#FFFFFF" d="M12.217,0.117C5.471,0.117,0,5.587,0,12.334
	c0,5.397,3.5,9.978,8.355,11.593c0.609,0.111,0.834-0.266,0.834-0.589c0-0.29-0.012-1.06-0.018-2.079
	c-3.398,0.738-4.115-1.637-4.115-1.637c-0.555-1.411-1.355-1.787-1.355-1.787c-1.109-0.758,0.084-0.743,0.084-0.743
	c1.225,0.087,1.871,1.26,1.871,1.26c1.09,1.866,2.859,1.327,3.555,1.015c0.111-0.789,0.428-1.328,0.775-1.633
	c-2.713-0.309-5.564-1.356-5.564-6.038c0-1.335,0.477-2.425,1.258-3.278C5.555,8.108,5.135,6.866,5.799,5.185
	c0,0,1.027-0.33,3.359,1.252c0.975-0.271,2.021-0.407,3.059-0.412c1.037,0.005,2.084,0.141,3.059,0.412
	c2.332-1.582,3.357-1.252,3.357-1.252c0.666,1.682,0.246,2.924,0.121,3.232c0.783,0.854,1.256,1.943,1.256,3.278
	c0,4.693-2.856,5.726-5.578,6.028c0.439,0.377,0.83,1.123,0.83,2.263c0,1.634-0.016,2.95-0.016,3.352
	c0,0.327,0.221,0.706,0.84,0.587c4.85-1.618,8.348-6.194,8.348-11.591C24.434,5.587,18.963,0.117,12.217,0.117z"/>
</svg>
