<?xml version="1.0" encoding="utf-8"?>
<!-- Generator: Adobe Illustrator 16.0.0, SVG Export Plug-In . SVG Version: 6.00 Build 0)  -->
<!DOCTYPE svg PUBLIC "-//W3C//DTD SVG 1.1//EN" "http://www.w3.org/Graphics/SVG/1.1/DTD/svg11.dtd">
<svg version="1.1" id="Layer_1" xmlns="http://www.w3.org/2000/svg" xmlns:xlink="http://www.w3.org/1999/xlink" x="0px" y="0px"
	 width="30px" height="32px" viewBox="0 0 30 32" enable-background="new 0 0 30 32" xml:space="preserve">
<g>
	<path fill="#FFFFFF" d="M25.152,4.084H4.843c-0.97,0-1.758,0.769-1.758,1.718v20.394c0,0.949,0.788,1.719,1.758,1.719h20.31
		c0.972,0,1.763-0.77,1.763-1.719V5.803C26.915,4.854,26.124,4.084,25.152,4.084z M10.154,24.39H6.615V13.019h3.539V24.39z
		 M8.386,11.464c-1.136,0-2.05-0.917-2.05-2.049c0-1.131,0.914-2.05,2.05-2.05c1.131,0,2.048,0.918,2.048,2.05
		C10.434,10.547,9.517,11.464,8.386,11.464z M23.393,24.39h-3.534v-5.529c0-1.316-0.023-3.017-1.837-3.017
		c-1.84,0-2.12,1.438-2.12,2.923v5.623h-3.53V13.019h3.389v1.554h0.048c0.472-0.894,1.625-1.835,3.345-1.835
		c3.578,0,4.24,2.354,4.24,5.416V24.39z"/>
</g>
<rect fill-rule="evenodd" clip-rule="evenodd" fill="none" width="30" height="32"/>
</svg>
