<?xml version="1.0" encoding="utf-8"?>
<!-- Generator: Adobe Illustrator 16.0.0, SVG Export Plug-In . SVG Version: 6.00 Build 0)  -->
<!DOCTYPE svg PUBLIC "-//W3C//DTD SVG 1.1//EN" "http://www.w3.org/Graphics/SVG/1.1/DTD/svg11.dtd">
<svg version="1.1" id="Layer_1" xmlns="http://www.w3.org/2000/svg" xmlns:xlink="http://www.w3.org/1999/xlink" x="0px" y="0px"
	 width="24.111px" height="24.204px" viewBox="0 0 24.111 24.204" enable-background="new 0 0 24.111 24.204" xml:space="preserve">
<g>
	<path fill="#FFFFFF" d="M22.196,0.127H1.887c-0.97,0-1.758,0.769-1.758,1.718v20.394c0,0.949,0.788,1.719,1.758,1.719h20.31
		c0.972,0,1.763-0.77,1.763-1.719V1.845C23.959,0.896,23.168,0.127,22.196,0.127z M7.198,20.433H3.659V9.061h3.539V20.433z
		 M5.43,7.507c-1.136,0-2.05-0.917-2.05-2.049c0-1.131,0.914-2.05,2.05-2.05c1.131,0,2.048,0.918,2.048,2.05
		C7.478,6.589,6.561,7.507,5.43,7.507z M20.437,20.433h-3.534v-5.529c0-1.316-0.023-3.017-1.837-3.017
		c-1.84,0-2.12,1.438-2.12,2.923v5.623h-3.53V9.061h3.389v1.554h0.048c0.472-0.894,1.625-1.835,3.345-1.835
		c3.578,0,4.24,2.354,4.24,5.417V20.433z"/>
</g>
</svg>
