<?xml version="1.0" encoding="utf-8"?>
<!-- Generator: Adobe Illustrator 16.0.0, SVG Export Plug-In . SVG Version: 6.00 Build 0)  -->
<!DOCTYPE svg PUBLIC "-//W3C//DTD SVG 1.1//EN" "http://www.w3.org/Graphics/SVG/1.1/DTD/svg11.dtd">
<svg version="1.1" id="Layer_1" xmlns="http://www.w3.org/2000/svg" xmlns:xlink="http://www.w3.org/1999/xlink" x="0px" y="0px"
	 width="195.59px" height="31.459px" viewBox="0 0 195.59 31.459" enable-background="new 0 0 195.59 31.459" xml:space="preserve">
<g>
	<g>
		<g>
			<path fill="#FFFFFF" d="M68.464,14.586h-5.956v5.51h6.865v0.965h-7.969V7.553h7.932v0.975h-6.828v5.094h5.956V14.586z"/>
			<path fill="#FFFFFF" d="M76.582,19.559l0.046,0.193l0.056-0.193l3.451-8.535h1.16l-4.222,10.037h-0.909l-4.23-10.037h1.16
				L76.582,19.559z"/>
			<path fill="#FFFFFF" d="M91.036,21.061c-0.068-0.203-0.121-0.432-0.158-0.682s-0.062-0.506-0.074-0.766
				c-0.191,0.236-0.414,0.451-0.668,0.65c-0.254,0.197-0.53,0.369-0.83,0.514c-0.301,0.146-0.623,0.26-0.97,0.344
				s-0.708,0.125-1.085,0.125c-0.471,0-0.908-0.068-1.313-0.203c-0.405-0.137-0.758-0.328-1.058-0.576
				c-0.3-0.246-0.535-0.545-0.705-0.895s-0.255-0.74-0.255-1.174c0-0.576,0.127-1.064,0.381-1.467
				c0.253-0.4,0.597-0.727,1.029-0.979c0.433-0.25,0.934-0.434,1.503-0.551s1.166-0.178,1.791-0.178h2.171v-1.141
				c-0.007-0.377-0.081-0.709-0.223-0.996c-0.143-0.289-0.336-0.529-0.58-0.725c-0.245-0.195-0.535-0.342-0.872-0.441
				c-0.338-0.098-0.704-0.148-1.1-0.148c-0.358,0-0.7,0.047-1.025,0.141c-0.324,0.092-0.612,0.225-0.862,0.398
				c-0.251,0.174-0.453,0.385-0.607,0.635c-0.155,0.252-0.238,0.533-0.251,0.85l-1.113-0.01c0.019-0.426,0.131-0.818,0.339-1.178
				c0.207-0.359,0.487-0.67,0.84-0.932c0.353-0.264,0.762-0.469,1.229-0.617s0.967-0.223,1.499-0.223
				c0.531,0,1.031,0.068,1.498,0.203c0.467,0.137,0.872,0.34,1.215,0.613c0.344,0.271,0.615,0.611,0.816,1.02
				s0.305,0.885,0.312,1.43v4.861c0,0.334,0.028,0.67,0.088,1.01c0.059,0.342,0.131,0.666,0.218,0.975l0.01,0.111H91.036z
				 M87.371,20.264c0.39,0.006,0.763-0.041,1.118-0.141c0.355-0.098,0.682-0.236,0.979-0.412s0.56-0.387,0.789-0.631
				c0.229-0.244,0.408-0.512,0.538-0.803v-2.199h-2.022c-0.489,0-0.959,0.037-1.41,0.111c-0.452,0.074-0.851,0.197-1.197,0.367
				s-0.623,0.398-0.83,0.682c-0.207,0.285-0.311,0.641-0.311,1.066c0,0.305,0.062,0.576,0.186,0.816
				c0.123,0.242,0.29,0.447,0.501,0.617c0.21,0.172,0.457,0.301,0.742,0.391C86.737,20.219,87.043,20.264,87.371,20.264z"/>
			<path fill="#FFFFFF" d="M96.556,11.023l0.084,1.883c0.353-0.625,0.822-1.123,1.41-1.498c0.587-0.375,1.255-0.564,2.004-0.57
				c1.101,0,1.941,0.328,2.523,0.988c0.581,0.658,0.875,1.594,0.881,2.805v6.43h-1.113v-6.41c-0.006-0.922-0.217-1.629-0.631-2.119
				c-0.414-0.492-1.058-0.734-1.93-0.729c-0.358,0-0.7,0.059-1.025,0.176c-0.324,0.117-0.621,0.277-0.891,0.482
				c-0.269,0.203-0.507,0.445-0.714,0.723c-0.208,0.279-0.376,0.582-0.506,0.91v6.967h-1.113V11.023H96.556z"/>
			<path fill="#FFFFFF" d="M126.466,21.061h-1.048v-6.475h-6.346v6.475h-1.049V7.553h1.049v6.068h6.346V7.553h1.048V21.061z"/>
			<path fill="#FFFFFF" d="M134.027,21.246c-0.699,0-1.336-0.129-1.911-0.389s-1.069-0.613-1.48-1.059s-0.729-0.965-0.955-1.562
				c-0.227-0.598-0.342-1.232-0.348-1.906v-0.4c0.006-0.717,0.125-1.385,0.356-2.004c0.232-0.617,0.549-1.156,0.951-1.613
				s0.875-0.818,1.42-1.08c0.544-0.264,1.128-0.395,1.753-0.395c0.668,0,1.259,0.119,1.772,0.361c0.513,0.24,0.944,0.57,1.294,0.988
				s0.615,0.904,0.798,1.461s0.276,1.154,0.283,1.791v0.676h-7.515v0.215c0.006,0.525,0.096,1.027,0.269,1.508
				c0.173,0.479,0.418,0.9,0.733,1.266s0.695,0.658,1.141,0.877s0.94,0.328,1.484,0.328c0.618,0.008,1.179-0.107,1.68-0.342
				c0.501-0.236,0.928-0.576,1.28-1.021l0.705,0.529c-0.186,0.26-0.405,0.5-0.659,0.719c-0.254,0.221-0.537,0.406-0.849,0.561
				c-0.312,0.156-0.654,0.275-1.025,0.363C134.834,21.203,134.441,21.246,134.027,21.246z M133.813,11.783
				c-0.451,0-0.866,0.086-1.243,0.256s-0.708,0.406-0.992,0.709c-0.285,0.303-0.52,0.66-0.705,1.072s-0.312,0.861-0.381,1.35h6.355
				v-0.121c-0.013-0.414-0.089-0.816-0.228-1.211c-0.14-0.393-0.338-0.74-0.594-1.043c-0.257-0.303-0.57-0.547-0.941-0.732
				S134.29,11.783,133.813,11.783z"/>
			<path fill="#FFFFFF" d="M148.147,18.51c0-0.309-0.078-0.578-0.232-0.807s-0.366-0.426-0.636-0.59
				c-0.269-0.164-0.579-0.301-0.933-0.412c-0.352-0.111-0.727-0.207-1.122-0.289c-0.482-0.098-0.949-0.217-1.401-0.355
				c-0.451-0.141-0.854-0.318-1.205-0.535c-0.354-0.215-0.635-0.48-0.845-0.793c-0.21-0.311-0.315-0.697-0.315-1.154
				c0-0.434,0.108-0.82,0.324-1.16c0.217-0.34,0.502-0.627,0.854-0.863c0.354-0.234,0.755-0.412,1.207-0.533
				c0.451-0.119,0.915-0.18,1.391-0.18c0.545,0,1.054,0.066,1.526,0.199c0.474,0.133,0.888,0.328,1.243,0.584
				c0.355,0.258,0.639,0.57,0.85,0.941c0.21,0.371,0.324,0.795,0.343,1.271h-1.113c-0.013-0.322-0.099-0.611-0.26-0.867
				s-0.374-0.473-0.64-0.645c-0.267-0.174-0.568-0.307-0.905-0.4c-0.337-0.092-0.685-0.139-1.044-0.139
				c-0.334,0-0.66,0.037-0.979,0.107s-0.603,0.18-0.854,0.324c-0.25,0.146-0.451,0.328-0.603,0.547
				c-0.151,0.221-0.228,0.479-0.228,0.775c-0.006,0.314,0.066,0.58,0.218,0.793s0.357,0.393,0.617,0.539
				c0.26,0.145,0.564,0.266,0.914,0.361c0.349,0.096,0.722,0.184,1.118,0.264c0.507,0.105,0.99,0.234,1.451,0.385
				c0.461,0.152,0.867,0.342,1.221,0.566c0.352,0.227,0.631,0.502,0.834,0.83c0.205,0.328,0.307,0.721,0.307,1.178
				c0,0.471-0.113,0.881-0.339,1.23s-0.522,0.641-0.891,0.871c-0.368,0.232-0.788,0.406-1.262,0.52
				c-0.473,0.115-0.96,0.172-1.461,0.172c-0.562,0-1.093-0.068-1.591-0.203c-0.498-0.137-0.938-0.332-1.317-0.59
				c-0.381-0.256-0.686-0.57-0.914-0.941s-0.353-0.791-0.371-1.262h1.113c0.037,0.396,0.156,0.727,0.357,0.992
				c0.2,0.266,0.448,0.479,0.742,0.637c0.294,0.156,0.613,0.268,0.96,0.334c0.347,0.064,0.687,0.096,1.021,0.096
				c0.34,0,0.679-0.035,1.016-0.105s0.641-0.18,0.909-0.324c0.27-0.146,0.488-0.332,0.659-0.557
				C148.053,19.096,148.141,18.824,148.147,18.51z"/>
			<path fill="#FFFFFF" d="M159.549,18.51c0-0.309-0.077-0.578-0.231-0.807c-0.155-0.229-0.367-0.426-0.636-0.59
				c-0.27-0.164-0.58-0.301-0.933-0.412s-0.727-0.207-1.123-0.289c-0.482-0.098-0.949-0.217-1.4-0.355
				c-0.451-0.141-0.854-0.318-1.206-0.535c-0.353-0.215-0.634-0.48-0.845-0.793c-0.21-0.311-0.314-0.697-0.314-1.154
				c0-0.434,0.107-0.82,0.324-1.16s0.501-0.627,0.854-0.863c0.353-0.234,0.755-0.412,1.206-0.533c0.451-0.119,0.915-0.18,1.392-0.18
				c0.544,0,1.053,0.066,1.526,0.199c0.473,0.133,0.888,0.328,1.243,0.584c0.355,0.258,0.639,0.57,0.849,0.941
				s0.325,0.795,0.343,1.271h-1.113c-0.012-0.322-0.099-0.611-0.26-0.867c-0.16-0.256-0.374-0.473-0.64-0.645
				c-0.266-0.174-0.567-0.307-0.904-0.4c-0.337-0.092-0.686-0.139-1.044-0.139c-0.334,0-0.66,0.037-0.979,0.107
				s-0.604,0.18-0.854,0.324c-0.251,0.146-0.452,0.328-0.604,0.547c-0.151,0.221-0.227,0.479-0.227,0.775
				c-0.007,0.314,0.066,0.58,0.218,0.793s0.356,0.393,0.616,0.539c0.26,0.145,0.564,0.266,0.914,0.361s0.723,0.184,1.118,0.264
				c0.507,0.105,0.991,0.234,1.452,0.385c0.461,0.152,0.867,0.342,1.22,0.566c0.353,0.227,0.631,0.502,0.835,0.83
				s0.307,0.721,0.307,1.178c0,0.471-0.113,0.881-0.339,1.23s-0.522,0.641-0.891,0.871c-0.368,0.232-0.789,0.406-1.262,0.52
				c-0.474,0.115-0.96,0.172-1.462,0.172c-0.562,0-1.093-0.068-1.591-0.203c-0.498-0.137-0.937-0.332-1.317-0.59
				c-0.38-0.256-0.685-0.57-0.914-0.941c-0.229-0.371-0.352-0.791-0.371-1.262h1.113c0.037,0.396,0.156,0.727,0.357,0.992
				s0.448,0.479,0.742,0.637c0.294,0.156,0.614,0.268,0.961,0.334c0.346,0.064,0.686,0.096,1.02,0.096
				c0.341,0,0.68-0.035,1.017-0.105s0.64-0.18,0.909-0.324c0.269-0.146,0.488-0.332,0.658-0.557
				C159.454,19.096,159.543,18.824,159.549,18.51z"/>
			<path fill="#FFFFFF" d="M164.206,6.811h4.676v13.268h3.396v0.982h-8.071v-0.982h3.562V7.803h-3.562V6.811z"/>
			<path fill="#FFFFFF" d="M179.634,21.246c-0.698,0-1.336-0.129-1.91-0.389c-0.576-0.26-1.069-0.613-1.48-1.059
				s-0.729-0.965-0.955-1.562c-0.227-0.598-0.342-1.232-0.348-1.906v-0.4c0.006-0.717,0.125-1.385,0.356-2.004
				c0.232-0.617,0.549-1.156,0.951-1.613s0.875-0.818,1.419-1.08c0.545-0.264,1.129-0.395,1.754-0.395
				c0.668,0,1.259,0.119,1.771,0.361c0.514,0.24,0.945,0.57,1.295,0.988s0.615,0.904,0.798,1.461s0.276,1.154,0.282,1.791v0.676
				h-7.514v0.215c0.006,0.525,0.096,1.027,0.269,1.508c0.173,0.479,0.417,0.9,0.733,1.266c0.314,0.365,0.695,0.658,1.141,0.877
				s0.94,0.328,1.484,0.328c0.618,0.008,1.178-0.107,1.68-0.342c0.5-0.236,0.928-0.576,1.279-1.021l0.705,0.529
				c-0.186,0.26-0.404,0.5-0.658,0.719c-0.254,0.221-0.537,0.406-0.849,0.561c-0.312,0.156-0.654,0.275-1.025,0.363
				C180.441,21.203,180.049,21.246,179.634,21.246z M179.421,11.783c-0.451,0-0.866,0.086-1.243,0.256s-0.708,0.406-0.993,0.709
				c-0.284,0.303-0.52,0.66-0.705,1.072s-0.312,0.861-0.38,1.35h6.354v-0.121c-0.012-0.414-0.088-0.816-0.227-1.211
				c-0.14-0.393-0.338-0.74-0.594-1.043c-0.257-0.303-0.57-0.547-0.941-0.732S179.897,11.783,179.421,11.783z"/>
			<path fill="#FFFFFF" d="M193.393,10.838c0.278,0,0.557,0.018,0.835,0.051s0.51,0.082,0.695,0.143l-0.139,1.068
				c-0.26-0.057-0.52-0.1-0.779-0.131s-0.525-0.047-0.798-0.047c-0.94,0-1.738,0.223-2.394,0.668s-1.116,1.129-1.383,2.051
				l0.01,6.42h-1.15V11.023h1.066l0.074,1.744v0.203c0.408-0.662,0.95-1.182,1.624-1.562S192.508,10.838,193.393,10.838z"/>
		</g>
	</g>
	<g>
		<polygon fill="#FFFFFF" points="14.321,0.309 0.464,30.709 6.644,30.709 20.5,0.309 		"/>
		<polygon fill="#FFFFFF" points="43.385,0.309 40.475,6.693 23.77,6.693 21.206,12.316 37.911,12.316 35.001,18.701 18.296,18.701 
			15.733,24.324 32.438,24.324 29.528,30.709 35.708,30.709 49.564,0.309 		"/>
	</g>
</g>
</svg>
